<svg  height="68" style="opacity: 0.75" viewBox="0 0 360 160" xmlns="http://www.w3.org/2000/svg">
  <rect y=".014" width="28.216" height="28.216" rx="3.809" ry="3.809" fill="#e4eae4"/>
  <rect x="39.432" width="28.216" height="28.216" rx="3.809" ry="3.809" fill="#e4eae4"/>
  <rect y="38.385" width="28.216" height="28.216" rx="3.809" ry="3.809" fill="#e4eae4"/>
  <rect x="39.432" y="38.371" width="28.216" height="28.216" rx="3.809" ry="3.809" fill="#e4eae4"/>
  <rect y=".014" width="28.216" height="28.216" rx="3.809" ry="3.809" x="79" fill="#e4eae4"/>
  <rect x="118.432" width="28.216" height="28.216" rx="3.809" ry="3.809" fill="#e4eae4"/>
  <rect y="38.385" width="28.216" height="28.216" rx="3.809" ry="3.809" x="79" fill="#e4eae4"/>
  <rect x="118.432" y="38.371" width="28.216" height="28.216" rx="3.809" ry="3.809" fill="#e4eae4"/>
  <rect y="80.014" width="28.216" height="28.216" rx="3.809" ry="3.809" fill="#e4eae4"/>
  <rect x="39.432" width="28.216" height="28.216" rx="3.809" ry="3.809" y="80" fill="#e4eae4"/>
  <rect y="118.385" width="28.216" height="28.216" rx="3.809" ry="3.809" fill="#e4eae4"/>
  <rect x="39.432" y="118.371" width="28.216" height="28.216" rx="3.809" ry="3.809" fill="#e4eae4"/>
  <rect y="80.014" width="28.216" height="28.216" rx="3.809" ry="3.809" x="79" fill="#e4eae4"/>
  <rect x="118.432" width="28.216" height="28.216" rx="3.809" ry="3.809" y="80" fill="#e4eae4"/>
  <rect y="118.385" width="28.216" height="28.216" rx="3.809" ry="3.809" x="79" fill="#e4eae4"/>
  <rect x="118.432" y="118.371" width="28.216" height="28.216" rx="3.809" ry="3.809" fill="#e4eae4"/>
  <rect y=".014" width="28.216" height="28.216" rx="3.809" ry="3.809" x="157.68" fill="#e4eae4"/>
  <rect x="197.112" width="28.216" height="28.216" rx="3.809" ry="3.809" fill="#e4eae4"/>
  <rect y="38.385" width="28.216" height="28.216" rx="3.809" ry="3.809" x="157.68" fill="#e4eae4"/>
  <rect x="197.112" y="38.371" width="28.216" height="28.216" rx="3.809" ry="3.809" fill="#e4eae4"/>
  <rect y=".014" width="28.216" height="28.216" rx="3.809" ry="3.809" x="236.68" fill="#e4eae4"/>
  <rect x="276.112" width="28.216" height="28.216" rx="3.809" ry="3.809" fill="#e4eae4"/>
  <rect y="38.385" width="28.216" height="28.216" rx="3.809" ry="3.809" x="236.68" fill="#e4eae4"/>
  <rect x="276.112" y="38.371" width="28.216" height="28.216" rx="3.809" ry="3.809" fill="#e4eae4"/>
  <rect y="80.014" width="28.216" height="28.216" rx="3.809" ry="3.809" x="157.68" fill="#e4eae4"/>
  <rect x="197.112" width="28.216" height="28.216" rx="3.809" ry="3.809" y="80" fill="#e4eae4"/>
  <rect y="118.385" width="28.216" height="28.216" rx="3.809" ry="3.809" x="157.68" fill="#e4eae4"/>
  <rect x="197.112" y="118.371" width="28.216" height="28.216" rx="3.809" ry="3.809" fill="#e4eae4"/>
  <rect y="80.014" width="28.216" height="28.216" rx="3.809" ry="3.809" x="236.68" fill="#e4eae4"/>
  <rect x="276.112" width="28.216" height="28.216" rx="3.809" ry="3.809" y="80" fill="#e4eae4"/>
  <rect y="118.385" width="28.216" height="28.216" rx="3.809" ry="3.809" x="236.68" fill="#e4eae4"/>
  <rect x="276.112" y="118.371" width="28.216" height="28.216" rx="3.809" ry="3.809" fill="#e4eae4"/>
  <rect y=".014" width="28.216" height="28.216" rx="3.809" ry="3.809" x="320" fill="#e4eae4"/>
  <rect x="359.432" width="28.216" height="28.216" rx="3.809" ry="3.809" fill="#e4eae4"/>
  <rect y="38.385" width="28.216" height="28.216" rx="3.809" ry="3.809" x="320" fill="#e4eae4"/>
  <rect x="359.432" y="38.371" width="28.216" height="28.216" rx="3.809" ry="3.809" fill="#e4eae4"/>
  <rect y="80.014" width="28.216" height="28.216" rx="3.809" ry="3.809" x="320" fill="#e4eae4"/>
  <rect x="359.432" width="28.216" height="28.216" rx="3.809" ry="3.809" y="80" fill="#e4eae4"/>
  <rect y="118.385" width="28.216" height="28.216" rx="3.809" ry="3.809" x="320" fill="#e4eae4"/>
  <rect x="359.432" y="118.371" width="28.216" height="28.216" rx="3.809" ry="3.809" fill="#e4eae4"/>
  <rect y=".014" width="28.216" height="28.216" rx="3.809" ry="3.809" x="398.68" fill="#e4eae4"/>
  <rect x="438.112" width="28.216" height="28.216" rx="3.809" ry="3.809" fill="#e4eae4"/>
  <rect y="38.385" width="28.216" height="28.216" rx="3.809" ry="3.809" x="398.68" fill="#e4eae4"/>
  <rect x="438.112" y="38.371" width="28.216" height="28.216" rx="3.809" ry="3.809" fill="#e4eae4"/>
  <rect y=".014" width="28.216" height="28.216" rx="3.809" ry="3.809" x="477.68" fill="#e4eae4"/>
  <rect x="517.112" width="28.216" height="28.216" rx="3.809" ry="3.809" fill="#e4eae4"/>
  <rect y="38.385" width="28.216" height="28.216" rx="3.809" ry="3.809" x="477.68" fill="#e4eae4"/>
  <rect x="517.112" y="38.371" width="28.216" height="28.216" rx="3.809" ry="3.809" fill="#e4eae4"/>
  <rect y="80.014" width="28.216" height="28.216" rx="3.809" ry="3.809" x="398.68" fill="#e4eae4"/>
  <rect x="438.112" width="28.216" height="28.216" rx="3.809" ry="3.809" y="80" fill="#e4eae4"/>
  <rect y="118.385" width="28.216" height="28.216" rx="3.809" ry="3.809" x="398.68" fill="#e4eae4"/>
  <rect x="438.112" y="118.371" width="28.216" height="28.216" rx="3.809" ry="3.809" fill="#e4eae4"/>
  <rect y="80.014" width="28.216" height="28.216" rx="3.809" ry="3.809" x="477.68" fill="#e4eae4"/>
  <rect x="517.112" width="28.216" height="28.216" rx="3.809" ry="3.809" y="80" fill="#e4eae4"/>
  <rect y="118.385" width="28.216" height="28.216" rx="3.809" ry="3.809" x="477.68" fill="#e4eae4"/>
  <rect x="517.112" y="118.371" width="28.216" height="28.216" rx="3.809" ry="3.809" fill="#e4eae4"/>
  <rect y="160.014" width="28.216" height="28.216" rx="3.809" ry="3.809" fill="#e4eae4"/>
  <rect x="39.432" width="28.216" height="28.216" rx="3.809" ry="3.809" y="160" fill="#e4eae4"/>
  <rect y="160.014" width="28.216" height="28.216" rx="3.809" ry="3.809" x="79" fill="#e4eae4"/>
  <rect x="118.432" width="28.216" height="28.216" rx="3.809" ry="3.809" y="160" fill="#e4eae4"/>
  <rect y="160.014" width="28.216" height="28.216" rx="3.809" ry="3.809" x="157.68" fill="#e4eae4"/>
  <rect x="197.112" width="28.216" height="28.216" rx="3.809" ry="3.809" y="160" fill="#e4eae4"/>
  <rect y="160.014" width="28.216" height="28.216" rx="3.809" ry="3.809" x="236.68" fill="#e4eae4"/>
  <rect x="276.112" width="28.216" height="28.216" rx="3.809" ry="3.809" y="160" fill="#e4eae4"/>
  <rect y="160.014" width="28.216" height="28.216" rx="3.809" ry="3.809" x="320" fill="#e4eae4"/>
  <rect x="359.432" width="28.216" height="28.216" rx="3.809" ry="3.809" y="160" fill="#e4eae4"/>
  <rect y="160.014" width="28.216" height="28.216" rx="3.809" ry="3.809" x="398.68" fill="#e4eae4"/>
  <rect x="438.112" width="28.216" height="28.216" rx="3.809" ry="3.809" y="160" fill="#e4eae4"/>
  <rect y="160.014" width="28.216" height="28.216" rx="3.809" ry="3.809" x="477.68" fill="#e4eae4"/>
  <rect x="517.112" width="28.216" height="28.216" rx="3.809" ry="3.809" y="160" fill="#e4eae4"/>
</svg>