<?xml version="1.0" standalone="no"?>
<!DOCTYPE svg PUBLIC "-//W3C//DTD SVG 20010904//EN"
 "http://www.w3.org/TR/2001/REC-SVG-20010904/DTD/svg10.dtd">
<svg version="1.0" xmlns="http://www.w3.org/2000/svg"
 width="700.000000pt" height="700.000000pt" viewBox="0 0 700.000000 700.000000"
 preserveAspectRatio="xMidYMid meet">
<metadata>
Created by potrace 1.11, written by Peter Selinger 2001-2013
</metadata>
<g transform="translate(0.000000,700.000000) scale(0.100000,-0.100000)"
fill="#000000" stroke="none">
<path d="M1534 5850 c-12 -5 -27 -24 -33 -42 -11 -33 -128 -537 -137 -593 -3
-16 -12 -55 -19 -85 -8 -30 -30 -127 -50 -215 -19 -89 -37 -170 -40 -180 -5
-23 -85 -372 -90 -395 -20 -88 -28 -124 -40 -175 -13 -57 -83 -363 -90 -395
-2 -8 -18 -77 -35 -154 -17 -76 -33 -146 -35 -155 -2 -9 -11 -47 -20 -86 -9
-38 -37 -160 -61 -270 -25 -110 -47 -207 -49 -215 -5 -19 -66 -287 -70 -309
-2 -9 -24 -106 -50 -216 -25 -110 -48 -211 -51 -225 -3 -13 -14 -60 -24 -105
-10 -45 -21 -92 -24 -105 -2 -14 -16 -77 -31 -140 -15 -63 -29 -124 -31 -135
-2 -11 -19 -89 -39 -173 -19 -84 -35 -160 -35 -168 0 -22 37 -54 63 -54 18 0
356 332 1408 1385 761 761 1386 1393 1390 1402 3 10 3 27 -1 38 -9 21 -1708
1728 -1750 1758 -27 19 -27 19 -56 7z"/>
<path d="M5430 5852 c-8 -3 -718 -707 -1578 -1566 -859 -859 -1873 -1870
-2252 -2249 -598 -596 -690 -691 -690 -717 0 -19 8 -34 22 -44 20 -14 300 -16
2779 -16 2611 0 2758 1 2777 18 27 22 29 43 12 117 -7 33 -14 65 -16 70 -2 11
-35 158 -60 265 -8 36 -16 74 -18 85 -3 11 -12 53 -21 94 -9 40 -18 78 -19 85
-2 6 -6 22 -9 36 -3 14 -25 108 -47 210 -23 102 -52 232 -65 290 -13 58 -26
121 -30 140 -4 19 -11 49 -16 65 -9 30 -47 198 -55 245 -3 14 -13 61 -24 105
-10 44 -21 91 -24 105 -2 14 -12 59 -21 100 -10 41 -21 91 -25 110 -11 49 -60
265 -121 535 -28 127 -59 266 -69 310 -10 44 -27 123 -39 175 -21 89 -24 105
-35 155 -2 11 -19 83 -36 160 -17 77 -33 149 -36 160 -2 11 -15 70 -29 130
-14 61 -54 241 -90 400 -36 160 -70 313 -76 340 -16 70 -47 100 -89 87z"/>
</g>
</svg>
